<svg aria-hidden="true" style="position: absolute; width: 0; height: 0; overflow: hidden;" version="1.1" xmlns="http://www.w3.org/2000/svg" xmlns:xlink="http://www.w3.org/1999/xlink">
    <defs>
        <symbol id="icon-favicon" viewBox="0 0 32 32">
            <path d="M31.923 14.443c-0.861-8.81-8.713-15.247-17.521-14.362-8.775 0.881-15.182 8.698-14.324 17.476s8.658 15.205 17.438 14.371c8.812-0.838 15.269-8.674 14.408-17.484zM19.996 3.775c0.195-0.001 0.341 0.039 0.523 0.089l0.039 0.011c0.071 0.357-0 0.522-0.187 0.826-0.326 0.531-0.69 1.040-1.053 1.549-0.641 0.898-1.283 1.796-1.722 2.819-0.953 2.218-0.731 4.806-0.506 7.42 0.196 2.288 0.395 4.597-0.192 6.698-0.705 2.527-2.476 4.18-4.693 5.412-0.123 0.021-0.259 0.010-0.389 0-0.027-0.002-0.054-0.004-0.081-0.006-0.017-0.001-0.034-0.002-0.050-0.003l-0.021-0.041c-0.126-0.24-0.134-0.255-0.043-0.528 0.119-0.355 0.355-0.717 0.577-1.059 0.085-0.131 0.168-0.258 0.242-0.381 0.771-1.284 1.526-2.671 1.762-4.169 0.295-1.871 0.138-3.797-0.019-5.722-0.199-2.443-0.399-4.887 0.326-7.22 0.891-2.866 2.976-4.36 5.486-5.694z"></path>
        </symbol>
        <symbol id="icon-email" viewBox="0 0 32 32">
            <path d="M28.8 3.2h-25.6c-1.765 0-3.2 1.435-3.2 3.2v19.2c0 1.765 1.435 3.2 3.2 3.2h25.6c1.765 0 3.2-1.435 3.2-3.2v-19.2c0-1.765-1.435-3.2-3.2-3.2zM28.8 6.4v0.818l-12.8 9.957-12.8-9.955v-0.819h25.6zM3.2 25.6v-14.33l11.818 9.192c0.28 0.22 0.626 0.34 0.982 0.34s0.702-0.12 0.982-0.34l11.818-9.192 0.003 14.33h-25.603z"></path>
        </symbol>
        <symbol id="icon-phone" viewBox="0 0 32 32">
            <path d="M24.77 17.336c-0.156-0.157-0.342-0.281-0.546-0.365s-0.423-0.128-0.645-0.128c-0.221 0-0.44 0.044-0.645 0.128s-0.39 0.209-0.546 0.365l-2.685 2.685c-1.245-0.371-3.567-1.213-5.039-2.685s-2.314-3.795-2.685-5.039l2.685-2.685c0.157-0.156 0.281-0.342 0.365-0.546s0.128-0.423 0.128-0.645c0-0.221-0.044-0.44-0.128-0.645s-0.209-0.39-0.365-0.546l-6.737-6.737c-0.156-0.157-0.342-0.281-0.546-0.365s-0.423-0.128-0.645-0.128c-0.221 0-0.44 0.044-0.645 0.128s-0.39 0.209-0.546 0.365l-4.568 4.568c-0.64 0.64-1 1.519-0.987 2.417 0.039 2.398 0.674 10.729 7.239 17.294s14.895 7.198 17.295 7.239h0.047c0.889 0 1.73-0.35 2.366-0.987l4.568-4.568c0.157-0.156 0.281-0.342 0.365-0.546s0.128-0.423 0.128-0.645c0-0.221-0.044-0.44-0.128-0.645s-0.209-0.39-0.365-0.546l-6.737-6.739zM24.556 28.64c-2.102-0.035-9.293-0.6-14.944-6.252-5.669-5.669-6.218-12.886-6.252-14.946l3.377-3.377 4.355 4.355-2.178 2.178c-0.198 0.198-0.344 0.442-0.423 0.71s-0.092 0.552-0.035 0.826c0.040 0.194 1.029 4.787 3.825 7.582s7.389 3.784 7.582 3.825c0.274 0.059 0.558 0.048 0.826-0.032s0.512-0.226 0.71-0.425l2.179-2.178 4.355 4.355-3.379 3.377z"></path>
        </symbol>
        <symbol id="icon-location" viewBox="0 0 32 32">
            <path d="M16 19.2c3.53 0 6.4-2.87 6.4-6.4s-2.87-6.4-6.4-6.4c-3.53 0-6.4 2.87-6.4 6.4s2.87 6.4 6.4 6.4zM16 9.6c1.765 0 3.2 1.435 3.2 3.2s-1.435 3.2-3.2 3.2c-1.765 0-3.2-1.435-3.2-3.2s1.435-3.2 3.2-3.2z"></path>
            <path d="M15.072 31.702c0.271 0.193 0.595 0.297 0.928 0.297s0.657-0.104 0.928-0.297c0.486-0.344 11.918-8.598 11.872-18.902 0-7.058-5.742-12.8-12.8-12.8s-12.8 5.742-12.8 12.792c-0.046 10.312 11.386 18.566 11.872 18.91zM16 3.2c5.294 0 9.6 4.306 9.6 9.608 0.034 7.101-7.021 13.477-9.6 15.568-2.578-2.093-9.634-8.47-9.6-15.576 0-5.294 4.306-9.6 9.6-9.6z"></path>
        </symbol>
        <symbol id="icon-burger-menu" viewBox="0 0 32 32">
            <path d="M0 4h32v4h-32v-4zM0 14h32v4h-32v-4zM0 24h32v4h-32v-4z"></path>
        </symbol>
        <symbol id="icon-close" viewBox="0 0 32 32">
            <path d="M27.179 0.918l-11.315 11.312-11.312-11.312-3.771 3.771 11.312 11.312-11.312 11.312 3.771 3.771 11.312-11.312 11.315 11.312 3.771-3.771-11.312-11.312 11.312-11.312-3.771-3.771z"></path>
        </symbol>
        <symbol id="icon-next" viewBox="0 0 32 32">
            <path d="M10.356 30.062l14.048-14.048-14.048-14.048-3.481 3.481 10.567 10.567-10.567 10.567 3.481 3.481z"></path>
        </symbol>
        <symbol id="icon-pin" viewBox="0 0 32 32">
            <path d="M16 24l1.6-3.2v-8.227c2.754-0.715 4.8-3.2 4.8-6.173 0-3.53-2.87-6.4-6.4-6.4s-6.4 2.87-6.4 6.4c0 2.973 2.046 5.458 4.8 6.173v8.227l1.6 3.2zM12.8 6.4c0-1.765 1.435-3.2 3.2-3.2s3.2 1.435 3.2 3.2c0 1.765-1.435 3.2-3.2 3.2s-3.2-1.435-3.2-3.2z"></path>
            <path d="M22.827 13.701l-0.853 3.085c4.146 1.146 6.826 3.349 6.826 5.614 0 3.027-5.256 6.4-12.8 6.4s-12.8-3.373-12.8-6.4c0-2.266 2.68-4.469 6.827-5.616l-0.853-3.085c-5.659 1.565-9.174 4.898-9.174 8.701 0 5.382 7.029 9.6 16 9.6s16-4.218 16-9.6c0-3.803-3.515-7.136-9.173-8.699z"></path>
        </symbol>
        <symbol id="icon-sub" viewBox="0 0 32 32">
            <path d="M13.036 5.44l10.646 10.56-10.646 10.56 3.466 3.495 14.171-14.055-14.171-14.055-3.466 3.495z"></path>
            <path d="M4.194 1.945l-3.466 3.495 10.646 10.56-10.646 10.56 3.466 3.495 14.171-14.055-14.171-14.055z"></path>
        </symbol>
        <symbol id="icon-instagram" viewBox="0 0 32 32">
            <path d="M15.998 6.161c3.206 0 3.585 0.014 4.846 0.071 1.172 0.052 1.804 0.248 2.226 0.412 0.558 0.216 0.961 0.478 1.378 0.895 0.422 0.422 0.679 0.82 0.9 1.378 0.164 0.422 0.361 1.059 0.412 2.226 0.056 1.266 0.071 1.645 0.071 4.847s-0.014 3.585-0.071 4.847c-0.052 1.172-0.248 1.804-0.412 2.227-0.216 0.558-0.478 0.961-0.895 1.377-0.422 0.422-0.82 0.679-1.378 0.9-0.422 0.164-1.060 0.361-2.226 0.412-1.266 0.056-1.645 0.071-4.847 0.071s-3.585-0.014-4.847-0.071c-1.172-0.052-1.804-0.248-2.226-0.412-0.558-0.216-0.961-0.478-1.378-0.895-0.422-0.422-0.679-0.82-0.9-1.378-0.164-0.422-0.361-1.060-0.412-2.226-0.056-1.266-0.071-1.645-0.071-4.847s0.014-3.585 0.071-4.847c0.052-1.172 0.248-1.804 0.412-2.226 0.216-0.558 0.478-0.961 0.895-1.378 0.422-0.422 0.82-0.679 1.378-0.9 0.422-0.164 1.059-0.361 2.226-0.412 1.261-0.056 1.641-0.071 4.847-0.071h0.001zM15.998 4.001c-3.258 0-3.665 0.014-4.945 0.071-1.275 0.056-2.151 0.262-2.91 0.558-0.792 0.309-1.462 0.717-2.127 1.387-0.67 0.666-1.078 1.336-1.387 2.123-0.295 0.764-0.502 1.636-0.558 2.91-0.056 1.285-0.071 1.692-0.071 4.949s0.014 3.665 0.071 4.945c0.056 1.275 0.262 2.151 0.558 2.91 0.31 0.792 0.717 1.462 1.387 2.127 0.665 0.665 1.336 1.078 2.123 1.383 0.764 0.295 1.636 0.502 2.91 0.558 1.279 0.056 1.687 0.071 4.945 0.071s3.666-0.014 4.945-0.071c1.275-0.056 2.151-0.262 2.91-0.558 0.787-0.305 1.458-0.717 2.123-1.383s1.078-1.336 1.383-2.123c0.295-0.764 0.502-1.635 0.558-2.91 0.056-1.279 0.071-1.687 0.071-4.945s-0.014-3.665-0.071-4.945c-0.056-1.275-0.262-2.151-0.558-2.91-0.295-0.797-0.703-1.467-1.373-2.133-0.665-0.665-1.336-1.078-2.123-1.383-0.764-0.295-1.635-0.502-2.91-0.558-1.284-0.061-1.692-0.075-4.949-0.075l-0.001 0.001z"></path>
            <path d="M15.998 9.836c-3.402 0-6.163 2.76-6.163 6.163s2.76 6.163 6.163 6.163c3.403 0 6.163-2.76 6.163-6.163s-2.76-6.163-6.163-6.163zM15.998 19.997c-2.208 0-3.998-1.79-3.998-3.998s1.79-3.998 3.998-3.998c2.208 0 3.998 1.79 3.998 3.998s-1.79 3.998-3.998 3.998z"></path>
            <path d="M23.843 9.592c0 0.795-0.644 1.439-1.439 1.439s-1.439-0.644-1.439-1.439 0.644-1.439 1.439-1.439c0.795 0 1.439 0.644 1.439 1.439z"></path>
        </symbol>
        <symbol id="icon-star" viewBox="0 0 32 32">
            <path stroke-linejoin="miter" stroke-linecap="butt" stroke-miterlimit="4" stroke-width="1.6" d="M15.25 2.091c0.275-0.654 1.225-0.654 1.5 0l3.245 7.709c0.349 0.83 1.137 1.392 2.033 1.463l8.425 0.667c0.732 0.058 0.994 0.936 0.466 1.384l-6.42 5.433c-0.687 0.582-0.991 1.5-0.78 2.376l1.963 8.122c0.159 0.659-0.579 1.238-1.216 0.853h-0.002l-7.211-4.352c-0.769-0.464-1.737-0.464-2.506 0l-7.213 4.352c-0.637 0.384-1.375-0.194-1.216-0.853l1.962-8.122c0.212-0.876-0.092-1.795-0.78-2.376l-6.42-5.433c-0.529-0.448-0.267-1.326 0.466-1.384l8.425-0.667c0.896-0.071 1.683-0.633 2.033-1.463l3.245-7.709z"></path>
        </symbol>
        <symbol id="icon-facebook" viewBox="0 0 32 32">
            <path d="M31.238 15.701c0-8.467-6.822-15.331-15.238-15.331s-15.238 6.864-15.238 15.331c0 7.652 5.572 13.995 12.857 15.145v-10.713h-3.869v-4.432h3.869v-3.378c0-3.842 2.275-5.965 5.756-5.965 1.667 0 3.411 0.299 3.411 0.299v3.773h-1.921c-1.893 0-2.483 1.182-2.483 2.394v2.876h4.226l-0.675 4.432h-3.551v10.713c7.285-1.15 12.857-7.493 12.857-15.145z"></path>
        </symbol>
        <symbol id="icon-x" viewBox="0 0 32 32">
            <path d="M25.202 1.32h4.907l-10.72 12.049 12.611 16.396h-9.874l-7.734-9.944-8.85 9.944h-4.91l11.466-12.887-12.098-15.557h10.125l6.991 9.089 8.086-9.089zM23.48 26.877h2.719l-17.551-22.82h-2.918l17.75 22.82z"></path>
        </symbol>
        <symbol id="icon-box" viewBox="0 0 32 32">
            <path d="M29.968 8.192c0.282 0.486 0.431 1.038 0.432 1.6v12.4c-0.005 0.562-0.153 1.112-0.432 1.6l-0.24 0.4c-0.274 0.49-0.678 0.894-1.168 1.168l-10.736 6.208c-0.486 0.282-1.038 0.431-1.6 0.432h-0.448c-0.563 0.005-1.116-0.144-1.6-0.432l-10.752-6.192c-0.479-0.288-0.88-0.689-1.168-1.168l-0.224-0.4c-0.282-0.486-0.431-1.038-0.432-1.6v-12.4c0.001-0.562 0.15-1.114 0.432-1.6l0.224-0.4c0.28-0.485 0.683-0.888 1.168-1.168l10.736-6.208c0.486-0.282 1.038-0.431 1.6-0.432h0.464c0.562 0.001 1.114 0.15 1.6 0.432l10.736 6.192c0.488 0.282 0.895 0.684 1.184 1.168l0.224 0.4zM15.76 3.2l-9.36 5.408 9.6 5.536 9.6-5.536-9.376-5.408h-0.464zM17.6 28l9.36-5.408 0.24-0.4v-10.816l-9.6 5.552v11.072z"></path>
        </symbol>
        <symbol id="icon-star-full" viewBox="0 0 32 32">
            <path d="M14.513 1.78c0.55-1.306 2.423-1.306 2.973 0l3.246 7.71c0.232 0.551 0.756 0.927 1.358 0.975l8.426 0.667c1.428 0.113 2.006 1.873 0.919 2.793l-6.419 5.432c-0.459 0.388-0.659 0.997-0.519 1.577l1.961 8.123c0.332 1.376-1.183 2.464-2.405 1.727l-7.214-4.353c-0.515-0.311-1.163-0.311-1.678 0l-7.214 4.353c-1.222 0.737-2.738-0.35-2.405-1.727l1.961-8.123c0.14-0.58-0.060-1.189-0.519-1.577l-6.42-5.432c-1.088-0.92-0.509-2.68 0.919-2.793l8.426-0.667c0.602-0.048 1.126-0.424 1.358-0.975l3.246-7.71z"></path>
        </symbol>
        <symbol id="icon-location-map" viewBox="0 0 32 32">
          <path d="M15.515 18.855c2.852 0 5.172-2.32 5.172-5.172s-2.32-5.172-5.172-5.172-5.172 2.32-5.172 5.172 2.319 5.172 5.172 5.172zm0-7.757c1.426 0 2.586 1.16 2.586 2.586s-1.16 2.586-2.586 2.586-2.586-1.16-2.586-2.586 1.16-2.586 2.586-2.586z"/>
          <path d="M14.765 28.958a1.292 1.292 0 0 0 1.5 0c.393-.278 9.631-6.948 9.593-15.275 0-5.703-4.64-10.343-10.343-10.343S5.172 7.98 5.172 13.677c-.037 8.333 9.2 15.003 9.594 15.281zm.75-23.032c4.278 0 7.758 3.479 7.758 7.764.027 5.738-5.673 10.89-7.758 12.58-2.083-1.691-7.785-6.845-7.758-12.587 0-4.278 3.479-7.758 7.758-7.758z"/>
        </symbol>
        <symbol id="icon-location-envelope" viewBox="0 0 32 32">
          <path d="M25.858 5.926H5.171a2.589 2.589 0 0 0-2.586 2.586v15.515a2.589 2.589 0 0 0 2.586 2.586h20.687a2.589 2.589 0 0 0 2.586-2.586V8.512a2.589 2.589 0 0 0-2.586-2.586zm0 2.586v.661l-10.343 8.046L5.172 9.174v-.662h20.687zM5.172 24.027V12.448l9.55 7.428a1.283 1.283 0 0 0 1.588 0l9.55-7.428.003 11.579H5.174z"/>
        </symbol>
        <symbol id="icon-chevron-right" viewBox="0 0 32 32">
          <path d="m12.425 22.691 7.305-7.305-7.305-7.305-1.81 1.81 5.495 5.495-5.495 5.495 1.81 1.81z"/>
        </symbol>
        <symbol id="icon-location-phone" viewBox="0 0 32 32">
          <path d="M22.894 16.648a1.275 1.275 0 0 0-1.409-.281c-.157.065-.299.16-.419.281l-2.061 2.061c-.956-.284-2.738-.931-3.869-2.061s-1.777-2.913-2.061-3.868l2.061-2.061a1.292 1.292 0 0 0 0-1.828L9.964 3.719a1.292 1.292 0 0 0-1.828 0L4.63 7.225a2.586 2.586 0 0 0-.758 1.855c.03 1.841.517 8.236 5.557 13.276s11.435 5.526 13.277 5.557h.036c.683 0 1.328-.269 1.817-.758l3.506-3.506a1.275 1.275 0 0 0 .281-1.409 1.277 1.277 0 0 0-.281-.419l-5.172-5.173zm-.164 8.678c-1.614-.027-7.134-.46-11.472-4.799-4.352-4.352-4.773-9.892-4.799-11.473l2.592-2.592 3.343 3.344-1.672 1.672a1.288 1.288 0 0 0-.352 1.179c.031.149.79 3.674 2.936 5.821s5.672 2.905 5.821 2.936a1.285 1.285 0 0 0 1.179-.35l1.673-1.672 3.343 3.343-2.594 2.592z"/>
        </symbol>
    </defs>
</svg>